# AST/ASF file generated using VICON BodyLanguage
# -----------------------------------------------
:version 1.10
:name VICON
:units
  mass 1.0
  length 0.45
  angle deg
:documentation
   .ast/.asf automatically generated from VICON data using
   VICON BodyBuilder and BodyLanguage model FoxedUp or BRILLIANT.MOD
:root
   order TX TY TZ RX RY RZ
   axis XYZ
   position 0 0 0  
   orientation 0 0 0 
:bonedata
  begin
     id 1 
     name lhipjoint
     direction 0.440178 -0.822639 0.359871 
     length 2.53113 
     axis 0 0 0  XYZ
  end
  begin
     id 2 
     name lfemur
     direction 0.34202 -0.939693 0  
     length 7.88132  
     axis 0 0 20  XYZ
    dof rx ry rz
    limits (-160.0 20.0)
           (-70.0 70.0)
           (-60.0 70.0)
  end
  begin
     id 3 
     name ltibia
     direction 0.34202 -0.939693 0   
     length 8.43783   
     axis 0 0 20   XYZ
    dof rx
    limits (-10.0 170.0)
  end
  begin
     id 4 
     name lfoot
     direction 0.0886351 -0.243523 0.965837   
     length 2.63414   
     axis -90 7.62852e-016 20   XYZ
    dof rx rz
    limits (-45.0 90.0)
           (-70.0 20.0)
  end
  begin
     id 5 
     name ltoes
     direction 1.53703e-011 -4.21717e-011 1   
     length 1.31427   
     axis -90 7.62852e-016 20   XYZ
    dof rx
    limits (-90.0 20.0)
  end
  begin
     id 6 
     name rhipjoint
     direction -0.399779 -0.839773 0.367367   
     length 2.47948  
     axis 0 0 0  XYZ 
  end
  begin
     id 7 
     name rfemur
     direction -0.34202 -0.939693 0   
     length 7.74806   
     axis 0 0 -20   XYZ
    dof rx ry rz
    limits (-160.0 20.0)
           (-70.0 70.0)
           (-70.0 60.0)
  end
  begin
     id 8 
     name rtibia
     direction -0.34202 -0.939693 0   
     length 8.74432   
     axis 0 0 -20   XYZ
    dof rx
    limits (-10.0 170.0)
 end
 begin
     id 9 
     name rfoot
     direction -0.108514 -0.298139 0.948334   
     length 2.66102  
     axis -90 -7.62852e-016 -20   XYZ
    dof rx rz
    limits (-45.0 90.0)
           (-20.0 70.0)
  end
  begin
     id 10 
     name rtoes
     direction -1.53392e-011 -4.22077e-011 1   
     length 1.31983   
     axis -90 -7.62852e-016 -20   XYZ
    dof rx
    limits (-90.0 20.0)
  end
  begin
     id 11 
     name lowerback
     direction 0.0113257 0.999866 0.0118602   
     length 2.58694   
     axis 0 0 0   XYZ
    dof rx ry rz
    limits (-20.0 45.0)
           (-30.0 30.0)
           (-30.0 30.0)
  end
  begin
     id 12 
     name upperback
     direction -0.0164747 0.995193 -0.0965375   
     length 2.52368   
     axis 0 0 0   XYZ
    dof rx ry rz
    limits (-20.0 45.0)
           (-30.0 30.0)
           (-30.0 30.0)
  end
  begin
     id 13 
     name thorax
     direction -0.0194301 0.99433 -0.104552   
     length 2.56099   
     axis 0 0 0   XYZ
    dof rx ry rz
    limits (-20.0 45.0)
           (-30.0 30.0)
           (-30.0 30.0)
  end
  begin
     id 14 
     name lowerneck
     direction 0.0148543 0.995587 -0.092657   
     length 1.71582   
     axis 0 0 0   XYZ
    dof rx ry rz
    limits (-20.0 45.0)
           (-30.0 30.0)
           (-30.0 30.0)
  end
  begin
     id 15 
     name upperneck
     direction -0.0135467 0.993656 -0.111639   
     length 1.68937   
     axis 0 0 0   XYZ
    dof rx ry rz
    limits (-20.0 45.0)
           (-30.0 30.0)
           (-30.0 30.0)
  end
  begin
     id 16
     name head
     direction -0.00615349 0.999547 -0.029448  
     length 1.7462  
     axis 0 0 0   XYZ
    dof rx ry rz
    limits (-20.0 45.0)
           (-30.0 30.0)
           (-30.0 30.0)
  end
  begin
     id 17 
     name lclavicle
     direction 0.988267 0.149885 0.0293713  
     length 4.47222  
     axis 0 0 0   XYZ
    dof ry rz
    limits (-20.0 10.0)
           (0.0 20.0)
  end
  begin
     id 18 
     name lhumerus
     direction 1 -4.48986e-011 -1.14833e-027   
     length 5.37148   
     axis 180 -30 -90   XYZ
    dof rx ry rz
    limits (-60.0 90.0)
           (-90.0 90.0)
           (-90.0 90.0)
  end
  begin
     id 19
     name lradius
     direction 0.999998 0.00170963 -0.000987055   
     length 3.94212   
     axis 180 -30 -90   XYZ
    dof rx
    limits (-10.0 170.0)
  end
  begin
     id 20
     name lwrist
     direction 0.999998 7.53149e-005 -0.00194706   
     length 1.97106   
     axis 4.65056e-015 90 90   XYZ
    dof ry
    limits (-180.0 0.0)
 end
  begin
     id 21 
     name lhand
     direction 1 -4.48973e-011 -1.31746e-026   
     length 1.17917   
     axis 8.4065e-015 90 90   XYZ
    dof rx rz
    limits (-90.0 90.0)
           (-45.0 45.0)
  end
  begin
     id 22 
     name lfingers
     direction 1 -4.49107e-011 -2.63492e-026   
     length 0.950679   
     axis 1.6813e-014 90 90   XYZ
    dof rx
    limits (0.0 90.0)
  end
  begin
     id 23
     name lthumb
     direction 0.707107 -6.35048e-011 0.707107   
     length 1.36499   
     axis -90 45 2.85299e-015   XYZ
    dof rx rz
    limits (-45.0 45.0)
           (-45.0 45.0)
  end
  begin
     id 24 
     name rclavicle
     direction -0.996699 0.0642895 -0.0495725   
     length 4.62611  
     axis 0 0 0   XYZ 
    dof ry rz
    limits (-10.0 20.0)
           (-20.0 0.0)
  end
  begin
     id 25 
     name rhumerus
     direction -1 -4.48919e-011 -2.41059e-027  
     length 5.4981   
     axis 180 30 90   XYZ
    dof rx ry rz
    limits (-90.0 60.0)
           (-90.0 90.0)
           (-90.0 90.0)
  end
  begin
     id 26 
     name rradius
     direction -0.999999 0.00118101 -0.000681858   
     length 3.48381   
     axis 180 30 90   XYZ
    dof rx
    limits (-10.0 170.0)
  end
  begin
     id 27 
     name rwrist
     direction -0.999999 0.000321823 -0.00132288   
     length 1.7419   
     axis 4.65056e-015 -90 -90   XYZ
    dof ry
    limits (-180.0 0.0)
  end
  begin
     id 28
     name rhand
     direction -1 -4.49022e-011 -1.31746e-026   
     length 1.34932   
     axis 8.4065e-015 -90 -90   XYZ
    dof rx rz
    limits (-90.0 90.0)
           (-45.0 45.0)
  end
  begin
     id 29
     name rfingers
     direction -1 -4.49178e-011 -2.63492e-026   
     length 1.08785   
     axis 1.6813e-014 -90 -90   XYZ
    dof rx
    limits (0.0 90.0)
  end
  begin
     id 30
     name rthumb
     direction -0.707107 -6.34713e-011 0.707107   
     length 1.56195   
     axis -90 -45 -2.85299e-015   XYZ
    dof rx rz
    limits (-45.0 45.0)
           (-45.0 45.0)
  end
:hierarchy
  begin
    root lhipjoint rhipjoint lowerback
    lhipjoint lfemur
    lfemur ltibia
    ltibia lfoot
    lfoot ltoes
    rhipjoint rfemur
    rfemur rtibia
    rtibia rfoot
    rfoot rtoes
    lowerback upperback
    upperback thorax
    thorax lowerneck lclavicle rclavicle
    lowerneck upperneck
    upperneck head
    lclavicle lhumerus
    lhumerus lradius
    lradius lwrist
    lwrist lhand lthumb
    lhand lfingers
    rclavicle rhumerus
    rhumerus rradius
    rradius rwrist
    rwrist rhand rthumb
    rhand rfingers
  end

#!OML:ASF X:\für Bonn\!DataBase\2005_08_10_Bjorn_Final\c3d\bjorn.ASF
:FULLY-SPECIFIED
:DEGREES
1
root 4.70246 18.9354 5.36899 -1983.78 -60.9775 174.538
lowerback 8.20431 1.538 -1.41678
upperback 16.0402 0.36454 0.110007
thorax 12.8287 -0.692039 0.758953
lowerneck 1.1398 -4.77814 1.03594
upperneck 26.0764 -11.1554 9.79659
head 8.46929 -4.99402 2.26077
rclavicle 1.00386e-014 -2.20651e-014
rhumerus -20.7417 -14.4368 -91.2117
rradius 44.3907
rwrist 7.14422
rhand -15.0121 11.0894
rfingers 7.12502
rthumb 11.1531 -18.5942
lclavicle 1.00386e-014 -2.20651e-014
lhumerus -23.3539 2.40622 81.4715
lradius 22.7601
lwrist -23.8402
lhand -14.5985 -8.07823
lfingers 7.12502
lthumb 11.5519 741.583
rfemur -353.305 5.64638 380.212
rtibia 25.8557
rfoot -15.9083 20.5617
rtoes 9.46184
lfemur -14.0974 -16.5927 -11.8208
ltibia 23.3578
lfoot -4.47953 -10.6347
ltoes -18.3507
2
root 4.6199 18.932 5.36899 -1983.97 -59.9466 174.763
lowerback 8.23212 1.61267 -1.60726
upperback 16.1073 0.436571 0.0401445
thorax 12.8918 -0.688877 0.785975
lowerneck 1.19998 -4.70045 0.880701
upperneck 25.9688 -11.0585 9.91493
head 8.42847 -4.96479 2.33569
rclavicle -3.77691e-014 3.81667e-014
rhumerus -20.7118 -14.3806 -91.2309
rradius 44.3796
rwrist 7.20913
rhand -15.2697 10.8843
rfingers 7.12502
rthumb 10.9046 -18.8125
lclavicle -3.77691e-014 3.81667e-014
lhumerus -23.1015 2.74971 81.1684
lradius 22.511
lwrist -24.1988
lhand -14.7218 -7.71198
lfingers 7.12502
lthumb 11.433 741.956
rfemur -352.996 6.24284 380.204
rtibia 25.5562
rfoot -15.7823 21.0031
rtoes 9.46976
lfemur -14.0695 -16.7388 -11.4527
ltibia 21.6112
lfoot -3.71597 -11.5198
ltoes -18.1883
3
root 4.53744 18.9277 5.36904 -1984.1 -58.895 174.944
lowerback 8.25099 1.69794 -1.81824
upperback 16.1689 0.524811 -0.0428271
thorax 12.9527 -0.679053 0.8104
lowerneck 1.29496 -4.63006 0.733037
upperneck 25.8443 -10.9662 10.025
head 8.3747 -4.9397 2.40757
rclavicle -3.97569e-016 1.05356e-014
rhumerus -20.6389 -14.436 -91.2609
rradius 44.2633
rwrist 7.29985
rhand -15.5548 10.672
rfingers 7.12502
rthumb 10.6296 -19.0391
lclavicle -3.97569e-016 1.05356e-014
lhumerus -22.8406 3.09077 80.8515
lradius 22.2424
lwrist -24.5802
lhand -14.9507 -7.37539
lfingers 7.12502
lthumb 11.2123 742.305
rfemur -352.72 6.85877 380.173
rtibia 25.2869
rfoot -15.6204 21.4593
rtoes 9.46772
lfemur -14.037 -16.8416 -11.1145
ltibia 20.0014
lfoot -3.03129 -12.2986
ltoes -18.3625
4
root 4.45442 18.9218 5.36907 -1984.24 -57.8588 175.127
lowerback 8.29567 1.78588 -2.02182
upperback 16.2183 0.616812 -0.121265
thorax 12.9827 -0.666118 0.835932
lowerneck 1.42925 -4.56679 0.550258
upperneck 25.6815 -10.8817 10.1712
head 8.3044 -4.9213 2.49835
rclavicle 3.18055e-014 1.2921e-014
rhumerus -20.5618 -14.6134 -91.2663
rradius 44.0755
rwrist 7.35675
rhand -15.7653 10.5081
rfingers 7.12502
rthumb 10.4266 -19.2134
lclavicle 3.18055e-014 1.2921e-014
lhumerus -22.5941 3.45184 80.5451
lradius 21.9847
lwrist -24.9812
lhand -15.2355 -7.04875
lfingers 7.12502
lthumb 10.9376 742.646
rfemur -352.468 7.47219 380.141
rtibia 25.0592
rfoot -15.4359 21.9506
rtoes 9.73723
lfemur -13.9684 -16.923 -10.7885
ltibia 18.5399
lfoot -2.56394 -12.9772
ltoes -19.3173
5
root 4.37177 18.9148 5.36999 -1984.35 -56.844 175.281
lowerback 8.35881 1.86852 -2.22859
upperback 16.2673 0.701585 -0.220972
thorax 13.0013 -0.655785 0.839367
lowerneck 1.54613 -4.51661 0.442477
upperneck 25.5395 -10.8055 10.2423
head 8.23744 -4.9042 2.54988
rclavicle 8.1452e-014 -4.48259e-014
rhumerus -20.5268 -14.8766 -91.2712
rradius 43.8731
rwrist 7.43694
rhand -15.8982 10.5269
rfingers 7.12502
rthumb 10.2984 -19.2009
lclavicle 8.1452e-014 -4.48259e-014
lhumerus -22.316 3.81372 80.216
lradius 21.7005
lwrist -25.3599
lhand -15.5356 -6.74001
lfingers 7.12502
lthumb 10.6482 742.97
rfemur -352.237 8.11624 380.1
rtibia 24.8693
rfoot -15.2341 22.438
rtoes 10.2422
lfemur -13.8682 -17.0072 -10.4875
ltibia 17.2569
lfoot -2.30454 -13.4442
ltoes -20.339
6
root 4.28899 18.9071 5.37101 -1984.45 -55.8272 175.416
lowerback 8.43727 1.96097 -2.46659
upperback 16.3174 0.796225 -0.310708
thorax 13.0111 -0.645919 0.870883
lowerneck 1.63567 -4.47156 0.324386
upperneck 25.3982 -10.7376 10.3218
head 8.17705 -4.88946 2.60424
rclavicle -1.08201e-013 6.60462e-014
rhumerus -20.5027 -15.163 -91.2342
rradius 43.614
rwrist 7.51738
rhand -16.0218 10.6283
rfingers 7.12502
rthumb 10.1792 -19.1055
lclavicle -1.08201e-013 6.60462e-014
lhumerus -22.0148 4.10856 79.9088
lradius 21.4339
lwrist -25.6138
lhand -15.7177 -6.46371
lfingers 7.12502
lthumb 10.4725 743.255
rfemur -352.032 8.75687 380.05
rtibia 24.7131
rfoot -15.0872 22.9113
rtoes 10.6279
lfemur -13.7496 -16.9831 -10.2277
ltibia 16.1665
lfoot -2.18095 -13.6187
ltoes -21.3527
7
root 4.20594 18.9 5.37259 -1984.55 -54.8227 175.547
lowerback 8.55046 2.05758 -2.67366
upperback 16.3581 0.897472 -0.429195
thorax 12.9888 -0.626066 0.853674
lowerneck 1.7329 -4.4347 0.254099
upperneck 25.2624 -10.6902 10.4112
head 8.11739 -4.88038 2.6525
rclavicle -3.72721e-016 3.66261e-014
rhumerus -20.5495 -15.4975 -91.2162
rradius 43.4049
rwrist 7.65646
rhand -16.0895 10.6914
rfingers 7.12502
rthumb 10.1138 -19.0455
lclavicle -3.72721e-016 3.66261e-014
lhumerus -21.6908 4.41136 79.5567
lradius 21.1408
lwrist -25.9022
lhand -15.879 -6.21613
lfingers 7.12502
lthumb 10.3169 743.511
rfemur -351.848 9.38492 379.986
rtibia 24.5945
rfoot -14.8772 23.4312
rtoes 11.3353
lfemur -13.616 -16.7341 -10.0544
ltibia 15.2625
lfoot -2.18051 -13.4351
ltoes -22.6107
8
root 4.12242 18.8923 5.37535 -1984.6 -53.8403 175.642
lowerback 8.64837 2.14278 -2.91815
upperback 16.3968 0.982419 -0.540967
thorax 12.9731 -0.619429 0.863902
lowerneck 1.796 -4.39544 0.164046
upperneck 25.151 -10.6315 10.4606
head 8.0699 -4.86763 2.69019
rclavicle -2.27111e-014 1.60519e-014
rhumerus -20.6046 -15.8415 -91.1786
rradius 43.1628
rwrist 7.92252
rhand -16.187 10.7287
rfingers 7.12502
rthumb 10.0198 -19.0128
lclavicle -2.27111e-014 1.60519e-014
lhumerus -21.37 4.78027 79.2195
lradius 20.848
lwrist -26.253
lhand -16.0777 -6.04753
lfingers 7.12502
lthumb 10.1252 743.689
rfemur -351.699 10.0269 379.902
rtibia 24.5069
rfoot -14.73 23.8898
rtoes 11.8852
lfemur -13.508 -16.2428 -9.98015
ltibia 14.5414
lfoot -1.94304 -13.2866
ltoes -22.6101
9
root 4.03863 18.8836 5.37832 -1984.64 -52.8667 175.734
lowerback 8.7631 2.22885 -3.15648
upperback 16.4176 1.07058 -0.667485
thorax 12.9252 -0.607593 0.854798
lowerneck 1.89277 -4.35584 0.123398
upperneck 25.0247 -10.5656 10.4846
head 8.0074 -4.85131 2.71274
rclavicle -1.80894e-014 8.64713e-015
rhumerus -20.7432 -16.2335 -91.1371
rradius 42.9544
rwrist 8.18313
rhand -16.246 10.7981
rfingers 7.12502
rthumb 9.96283 -18.9462
lclavicle -1.80894e-014 8.64713e-015
lhumerus -21.0468 4.98263 78.8863
lradius 20.5183
lwrist -26.5243
lhand -16.3856 -5.9158
lfingers 7.12502
lthumb 9.82816 743.835
rfemur -351.578 10.6605 379.807
rtibia 24.4496
rfoot -14.5319 24.3844
rtoes 12.6433
lfemur -13.4055 -15.6594 -9.95485
ltibia 13.9891
lfoot -1.7024 -13.227
ltoes -22.2229
10
root 3.95407 18.8731 5.38326 -1984.65 -51.9029 175.811
lowerback 8.85688 2.31172 -3.39756
upperback 16.4494 1.15264 -0.798749
thorax 12.9041 -0.600107 0.841226
lowerneck 1.96293 -4.32302 0.103444
upperneck 24.8909 -10.4945 10.4651
head 7.94351 -4.83158 2.71672
rclavicle 2.84262e-014 2.06736e-014
rhumerus -20.8381 -16.6736 -91.0994
rradius 42.7251
rwrist 8.53902
rhand -16.2986 10.7898
rfingers 7.12502
rthumb 9.91213 -18.9568
lclavicle 2.84262e-014 2.06736e-014
lhumerus -20.6888 5.33818 78.5339
lradius 20.1821
lwrist -26.964
lhand -16.6126 -5.9095
lfingers 7.12502
lthumb 9.60912 743.851
rfemur -351.498 11.2818 379.684
rtibia 24.4172
rfoot -14.3499 24.882
rtoes 13.373
lfemur -13.329 -14.921 -9.98841
ltibia 13.5804
lfoot -1.53679 -13.2551
ltoes -22.2951
11
root 3.86956 18.8616 5.38853 -1984.69 -50.9736 175.912
lowerback 8.97987 2.38833 -3.59581
upperback 16.489 1.2236 -0.960399
thorax 12.8771 -0.591646 0.769489
lowerneck 2.00386 -4.28142 0.144412
upperneck 24.7534 -10.4208 10.4696
head 7.88265 -4.80293 2.71743
rclavicle 3.27001e-014 -4.51241e-014
rhumerus -20.9088 -17.2178 -91.1094
rradius 42.4373
rwrist 8.95831
rhand -16.3301 10.8228
rfingers 7.12502
rthumb 9.88174 -18.9253
lclavicle 3.27001e-014 -4.51241e-014
lhumerus -20.293 5.49668 78.1626
lradius 19.8378
lwrist -27.3023
lhand -16.8143 -5.87305
lfingers 7.12502
lthumb 9.41451 743.897
rfemur -351.419 11.8612 379.578
rtibia 24.4119
rfoot -14.2057 25.3691
rtoes 13.9669
lfemur -13.2363 -14.1807 -10.0257
ltibia 13.274
lfoot -1.44396 -13.2556
ltoes -22.8368
